<?xml version="1.0" encoding="UTF-8" standalone="no"?>
<svg
   xmlns:dc="http://purl.org/dc/elements/1.1/"
   xmlns:cc="http://creativecommons.org/ns#"
   xmlns:rdf="http://www.w3.org/1999/02/22-rdf-syntax-ns#"
   xmlns:svg="http://www.w3.org/2000/svg"
   xmlns="http://www.w3.org/2000/svg"
   xmlns:sodipodi="http://sodipodi.sourceforge.net/DTD/sodipodi-0.dtd"
   xmlns:inkscape="http://www.inkscape.org/namespaces/inkscape"
   width="32"
   height="32"
   viewBox="0 0 32 32"
   fill="none"
   version="1.1"
   id="svg22"
   opacity="1"
   sodipodi:docname="LTC_O.svg"
   inkscape:version="1.0.2-2 (e86c870879, 2021-01-15)">
  <metadata
     id="metadata28">
    <rdf:RDF>
      <cc:Work
         rdf:about="">
        <dc:format>image/svg+xml</dc:format>
        <dc:type
           rdf:resource="http://purl.org/dc/dcmitype/StillImage" />
        <dc:title></dc:title>
      </cc:Work>
    </rdf:RDF>
  </metadata>
  <defs
     id="defs26" />
  <sodipodi:namedview
     pagecolor="#000000"
     bordercolor="#666666"
     borderopacity="1"
     objecttolerance="10"
     gridtolerance="10"
     guidetolerance="10"
     inkscape:pageopacity="1"
     inkscape:pageshadow="2"
     inkscape:window-width="1920"
     inkscape:window-height="1017"
     id="namedview24"
     showgrid="false"
     inkscape:zoom="22.627417"
     inkscape:cx="4.3231994"
     inkscape:cy="13.110734"
     inkscape:window-x="-8"
     inkscape:window-y="-8"
     inkscape:window-maximized="1"
     inkscape:current-layer="svg22"
     inkscape:document-rotation="0" />
  <rect
     style="fill:#ffffff;fill-opacity:1;stroke-width:1.0238"
     id="rect75"
     width="20.771261"
     height="19.501749"
     x="5.5242715"
     y="5.1586003"
     ry="0" />
  <rect
     style="fill:#ffffff;fill-opacity:0"
     id="rect77"
     width="18.252193"
     height="23.82066"
     x="6.805903"
     y="3.8890872" />
  <path
     fill-rule="evenodd"
     clip-rule="evenodd"
     d="M 0,16 C 0,7.1632 7.1632,0 16,0 24.8368,0 32,7.1632 32,16 32,24.8368 24.8368,32 16,32 7.1632,32 0,24.8368 0,16 Z m 8.46161,8.1984 H 23.7736 l 0.9584,-3.768 h -9.2664 l 1.152,-4.5328 2.4872,-0.9232 0.696,-2.74 -2.4864,0.9232 1.8288,-7.1952 h -6.0464 l -2.4568,9.6736 -2.12879,0.7896 -0.696,2.74 2.1256,-0.7896 z"
     fill="#b6b7ba"
     id="path20"
     style="display:inline;opacity:1" />
</svg>
